<mxfile host="app.diagrams.net" modified="2022-12-01T06:36:04.122Z" agent="5.0 (Macintosh; Intel Mac OS X 10_15_7) AppleWebKit/537.36 (KHTML, like Gecko) Chrome/107.0.0.0 Safari/537.36" etag="A4Dy-jmPVdLO3kA32ZDr" version="20.6.0" type="github">
  <diagram id="yZ0r1Intn805Cjn-J0Yu" name="第 1 页">
    <mxGraphModel dx="1426" dy="693" grid="1" gridSize="10" guides="1" tooltips="1" connect="1" arrows="1" fold="1" page="1" pageScale="1" pageWidth="827" pageHeight="1169" math="0" shadow="0">
      <root>
        <mxCell id="0" />
        <mxCell id="1" parent="0" />
        <mxCell id="YJmtcbZ3ICE1NTqurdCP-1" value="redisObject" style="rounded=0;whiteSpace=wrap;html=1;fillColor=#e1d5e7;strokeColor=#9673a6;" parent="1" vertex="1">
          <mxGeometry x="50" y="360" width="120" height="60" as="geometry" />
        </mxCell>
        <mxCell id="YJmtcbZ3ICE1NTqurdCP-2" value="String&lt;br&gt;（字符串、整数或浮点数）" style="rounded=0;whiteSpace=wrap;html=1;fillColor=#dae8fc;strokeColor=#6c8ebf;" parent="1" vertex="1">
          <mxGeometry x="250" y="140" width="120" height="60" as="geometry" />
        </mxCell>
        <mxCell id="YJmtcbZ3ICE1NTqurdCP-5" value="List&lt;br&gt;（有序集合）" style="rounded=0;whiteSpace=wrap;html=1;fillColor=#dae8fc;strokeColor=#6c8ebf;" parent="1" vertex="1">
          <mxGeometry x="250" y="280" width="120" height="60" as="geometry" />
        </mxCell>
        <mxCell id="YJmtcbZ3ICE1NTqurdCP-6" value="Set&lt;br&gt;（无序集合）" style="rounded=0;whiteSpace=wrap;html=1;fillColor=#dae8fc;strokeColor=#6c8ebf;" parent="1" vertex="1">
          <mxGeometry x="250" y="360" width="120" height="60" as="geometry" />
        </mxCell>
        <mxCell id="YJmtcbZ3ICE1NTqurdCP-7" value="Hash&lt;br&gt;（无序键值对）" style="rounded=0;whiteSpace=wrap;html=1;fillColor=#dae8fc;strokeColor=#6c8ebf;" parent="1" vertex="1">
          <mxGeometry x="250" y="480" width="120" height="60" as="geometry" />
        </mxCell>
        <mxCell id="YJmtcbZ3ICE1NTqurdCP-8" value="SortedSet&lt;br&gt;（带记分的集合）" style="rounded=0;whiteSpace=wrap;html=1;fillColor=#dae8fc;strokeColor=#6c8ebf;" parent="1" vertex="1">
          <mxGeometry x="250" y="600" width="120" height="60" as="geometry" />
        </mxCell>
        <mxCell id="YJmtcbZ3ICE1NTqurdCP-9" value="OBJ_ENCODING_RAW&lt;br&gt;" style="rounded=0;whiteSpace=wrap;html=1;fillColor=#d5e8d4;strokeColor=#82b366;" parent="1" vertex="1">
          <mxGeometry x="530" y="210" width="170" height="43" as="geometry" />
        </mxCell>
        <mxCell id="YJmtcbZ3ICE1NTqurdCP-10" value="OBJ_ENCODING_INT" style="rounded=0;whiteSpace=wrap;html=1;fillColor=#d5e8d4;strokeColor=#82b366;" parent="1" vertex="1">
          <mxGeometry x="530" y="90" width="170" height="43" as="geometry" />
        </mxCell>
        <mxCell id="YJmtcbZ3ICE1NTqurdCP-11" value="OBJ_ENCODING_INTSET" style="rounded=0;whiteSpace=wrap;html=1;fillColor=#d5e8d4;strokeColor=#82b366;opacity=40;" parent="1" vertex="1">
          <mxGeometry x="530" y="370" width="170" height="43" as="geometry" />
        </mxCell>
        <mxCell id="YJmtcbZ3ICE1NTqurdCP-12" value="OBJ_ENCODING_ZIPLIST" style="rounded=0;whiteSpace=wrap;html=1;fillColor=#d5e8d4;strokeColor=#82b366;opacity=40;" parent="1" vertex="1">
          <mxGeometry x="530" y="530" width="170" height="43" as="geometry" />
        </mxCell>
        <mxCell id="YJmtcbZ3ICE1NTqurdCP-13" value="OBJ_ENCODING_EMBSTR" style="rounded=0;whiteSpace=wrap;html=1;fillColor=#d5e8d4;strokeColor=#82b366;" parent="1" vertex="1">
          <mxGeometry x="530" y="150" width="170" height="43" as="geometry" />
        </mxCell>
        <mxCell id="YJmtcbZ3ICE1NTqurdCP-14" value="OBJ_ENCODING_QUICKLIST" style="rounded=0;whiteSpace=wrap;html=1;fillColor=#d5e8d4;strokeColor=#82b366;" parent="1" vertex="1">
          <mxGeometry x="530" y="290" width="170" height="43" as="geometry" />
        </mxCell>
        <mxCell id="YJmtcbZ3ICE1NTqurdCP-17" value="OBJ_ENCODING_SKIPLIST" style="rounded=0;whiteSpace=wrap;html=1;fillColor=#d5e8d4;strokeColor=#82b366;" parent="1" vertex="1">
          <mxGeometry x="530" y="610" width="170" height="43" as="geometry" />
        </mxCell>
        <mxCell id="YJmtcbZ3ICE1NTqurdCP-18" value="OBJ_ENCODING_HT" style="rounded=0;whiteSpace=wrap;html=1;fillColor=#d5e8d4;strokeColor=#82b366;" parent="1" vertex="1">
          <mxGeometry x="530" y="450" width="170" height="43" as="geometry" />
        </mxCell>
        <mxCell id="YJmtcbZ3ICE1NTqurdCP-20" value="" style="endArrow=classic;html=1;rounded=0;exitX=1;exitY=0.5;exitDx=0;exitDy=0;entryX=0;entryY=0.5;entryDx=0;entryDy=0;" parent="1" source="YJmtcbZ3ICE1NTqurdCP-2" target="YJmtcbZ3ICE1NTqurdCP-10" edge="1">
          <mxGeometry width="50" height="50" relative="1" as="geometry">
            <mxPoint x="510" y="430" as="sourcePoint" />
            <mxPoint x="560" y="380" as="targetPoint" />
          </mxGeometry>
        </mxCell>
        <mxCell id="YJmtcbZ3ICE1NTqurdCP-52" value="&lt;span style=&quot;font-size: 12px; background-color: rgb(248, 249, 250);&quot;&gt;long类型整数值&lt;/span&gt;" style="edgeLabel;html=1;align=center;verticalAlign=middle;resizable=0;points=[];" parent="YJmtcbZ3ICE1NTqurdCP-20" vertex="1" connectable="0">
          <mxGeometry x="0.1152" y="5" relative="1" as="geometry">
            <mxPoint as="offset" />
          </mxGeometry>
        </mxCell>
        <mxCell id="YJmtcbZ3ICE1NTqurdCP-21" value="" style="endArrow=classic;html=1;rounded=0;exitX=1;exitY=0.5;exitDx=0;exitDy=0;entryX=0;entryY=0.5;entryDx=0;entryDy=0;" parent="1" source="YJmtcbZ3ICE1NTqurdCP-2" target="YJmtcbZ3ICE1NTqurdCP-9" edge="1">
          <mxGeometry width="50" height="50" relative="1" as="geometry">
            <mxPoint x="170" y="220" as="sourcePoint" />
            <mxPoint x="220" y="170" as="targetPoint" />
          </mxGeometry>
        </mxCell>
        <mxCell id="YJmtcbZ3ICE1NTqurdCP-54" value="&lt;span style=&quot;font-size: 12px; background-color: rgb(248, 249, 250);&quot;&gt;大于44字节的字符串&lt;/span&gt;" style="edgeLabel;html=1;align=center;verticalAlign=middle;resizable=0;points=[];" parent="YJmtcbZ3ICE1NTqurdCP-21" vertex="1" connectable="0">
          <mxGeometry x="0.1196" y="2" relative="1" as="geometry">
            <mxPoint as="offset" />
          </mxGeometry>
        </mxCell>
        <mxCell id="YJmtcbZ3ICE1NTqurdCP-22" value="" style="endArrow=classic;html=1;rounded=0;exitX=1;exitY=0.5;exitDx=0;exitDy=0;entryX=0;entryY=0.5;entryDx=0;entryDy=0;" parent="1" source="YJmtcbZ3ICE1NTqurdCP-2" target="YJmtcbZ3ICE1NTqurdCP-13" edge="1">
          <mxGeometry width="50" height="50" relative="1" as="geometry">
            <mxPoint x="200" y="240" as="sourcePoint" />
            <mxPoint x="250" y="190" as="targetPoint" />
          </mxGeometry>
        </mxCell>
        <mxCell id="YJmtcbZ3ICE1NTqurdCP-53" value="&lt;span style=&quot;font-size: 12px; background-color: rgb(248, 249, 250);&quot;&gt;小于44字节的字符串&lt;/span&gt;" style="edgeLabel;html=1;align=center;verticalAlign=middle;resizable=0;points=[];" parent="YJmtcbZ3ICE1NTqurdCP-22" vertex="1" connectable="0">
          <mxGeometry x="0.2" y="4" relative="1" as="geometry">
            <mxPoint as="offset" />
          </mxGeometry>
        </mxCell>
        <mxCell id="YJmtcbZ3ICE1NTqurdCP-23" value="" style="endArrow=classic;html=1;rounded=0;entryX=0;entryY=0.5;entryDx=0;entryDy=0;exitX=1;exitY=0.5;exitDx=0;exitDy=0;" parent="1" source="YJmtcbZ3ICE1NTqurdCP-5" target="YJmtcbZ3ICE1NTqurdCP-14" edge="1">
          <mxGeometry width="50" height="50" relative="1" as="geometry">
            <mxPoint x="170" y="290" as="sourcePoint" />
            <mxPoint x="220" y="240" as="targetPoint" />
          </mxGeometry>
        </mxCell>
        <mxCell id="YJmtcbZ3ICE1NTqurdCP-24" value="" style="endArrow=classic;html=1;rounded=0;entryX=0;entryY=0.5;entryDx=0;entryDy=0;exitX=1;exitY=0.5;exitDx=0;exitDy=0;" parent="1" source="YJmtcbZ3ICE1NTqurdCP-7" target="YJmtcbZ3ICE1NTqurdCP-12" edge="1">
          <mxGeometry width="50" height="50" relative="1" as="geometry">
            <mxPoint x="170" y="450" as="sourcePoint" />
            <mxPoint x="220" y="400" as="targetPoint" />
          </mxGeometry>
        </mxCell>
        <mxCell id="YJmtcbZ3ICE1NTqurdCP-56" value="&lt;span style=&quot;font-size: 11px;&quot;&gt;元素长度小于64字节&lt;/span&gt;&lt;br&gt;元素数量小于512个" style="edgeLabel;html=1;align=center;verticalAlign=middle;resizable=0;points=[];" parent="YJmtcbZ3ICE1NTqurdCP-24" vertex="1" connectable="0">
          <mxGeometry x="-0.0559" relative="1" as="geometry">
            <mxPoint as="offset" />
          </mxGeometry>
        </mxCell>
        <mxCell id="YJmtcbZ3ICE1NTqurdCP-25" value="" style="endArrow=classic;html=1;rounded=0;entryX=0;entryY=0.5;entryDx=0;entryDy=0;exitX=1;exitY=0.5;exitDx=0;exitDy=0;" parent="1" source="YJmtcbZ3ICE1NTqurdCP-7" target="YJmtcbZ3ICE1NTqurdCP-18" edge="1">
          <mxGeometry width="50" height="50" relative="1" as="geometry">
            <mxPoint x="150" y="450" as="sourcePoint" />
            <mxPoint x="200" y="400" as="targetPoint" />
          </mxGeometry>
        </mxCell>
        <mxCell id="YJmtcbZ3ICE1NTqurdCP-26" value="" style="endArrow=classic;html=1;rounded=0;entryX=0;entryY=0.5;entryDx=0;entryDy=0;exitX=1;exitY=0.5;exitDx=0;exitDy=0;" parent="1" source="YJmtcbZ3ICE1NTqurdCP-6" target="YJmtcbZ3ICE1NTqurdCP-18" edge="1">
          <mxGeometry width="50" height="50" relative="1" as="geometry">
            <mxPoint x="90" y="500" as="sourcePoint" />
            <mxPoint x="140" y="450" as="targetPoint" />
          </mxGeometry>
        </mxCell>
        <mxCell id="YJmtcbZ3ICE1NTqurdCP-27" value="" style="endArrow=classic;html=1;rounded=0;entryX=0;entryY=0.5;entryDx=0;entryDy=0;exitX=1;exitY=0.5;exitDx=0;exitDy=0;" parent="1" source="YJmtcbZ3ICE1NTqurdCP-6" target="YJmtcbZ3ICE1NTqurdCP-11" edge="1">
          <mxGeometry width="50" height="50" relative="1" as="geometry">
            <mxPoint x="160" y="520" as="sourcePoint" />
            <mxPoint x="210" y="470" as="targetPoint" />
          </mxGeometry>
        </mxCell>
        <mxCell id="YJmtcbZ3ICE1NTqurdCP-55" value="所有元素都是整数&lt;br&gt;&lt;span style=&quot;font-size: 11px;&quot;&gt;元素数量不超过512&lt;/span&gt;" style="edgeLabel;html=1;align=center;verticalAlign=middle;resizable=0;points=[];" parent="YJmtcbZ3ICE1NTqurdCP-27" vertex="1" connectable="0">
          <mxGeometry x="0.0324" relative="1" as="geometry">
            <mxPoint as="offset" />
          </mxGeometry>
        </mxCell>
        <mxCell id="YJmtcbZ3ICE1NTqurdCP-28" value="" style="endArrow=classic;html=1;rounded=0;entryX=0;entryY=0.5;entryDx=0;entryDy=0;exitX=1;exitY=0.5;exitDx=0;exitDy=0;" parent="1" source="YJmtcbZ3ICE1NTqurdCP-8" target="YJmtcbZ3ICE1NTqurdCP-17" edge="1">
          <mxGeometry width="50" height="50" relative="1" as="geometry">
            <mxPoint x="300" y="640" as="sourcePoint" />
            <mxPoint x="350" y="590" as="targetPoint" />
          </mxGeometry>
        </mxCell>
        <mxCell id="YJmtcbZ3ICE1NTqurdCP-29" value="" style="endArrow=classic;html=1;rounded=0;entryX=0;entryY=0.5;entryDx=0;entryDy=0;exitX=1;exitY=0.5;exitDx=0;exitDy=0;" parent="1" source="YJmtcbZ3ICE1NTqurdCP-8" target="YJmtcbZ3ICE1NTqurdCP-12" edge="1">
          <mxGeometry width="50" height="50" relative="1" as="geometry">
            <mxPoint x="210" y="710" as="sourcePoint" />
            <mxPoint x="260" y="660" as="targetPoint" />
          </mxGeometry>
        </mxCell>
        <mxCell id="YJmtcbZ3ICE1NTqurdCP-57" value="&lt;span style=&quot;font-size: 11px;&quot;&gt;元素长度小于64字节&lt;/span&gt;&lt;br&gt;元素数量小于128" style="edgeLabel;html=1;align=center;verticalAlign=middle;resizable=0;points=[];" parent="YJmtcbZ3ICE1NTqurdCP-29" vertex="1" connectable="0">
          <mxGeometry x="0.0142" y="-1" relative="1" as="geometry">
            <mxPoint as="offset" />
          </mxGeometry>
        </mxCell>
        <mxCell id="YJmtcbZ3ICE1NTqurdCP-30" value="SDS" style="rounded=0;whiteSpace=wrap;html=1;fillColor=#ffe6cc;strokeColor=#d79b00;" parent="1" vertex="1">
          <mxGeometry x="800" y="140" width="170" height="60" as="geometry" />
        </mxCell>
        <mxCell id="YJmtcbZ3ICE1NTqurdCP-31" value="QuickList" style="rounded=0;whiteSpace=wrap;html=1;fillColor=#ffe6cc;strokeColor=#d79b00;" parent="1" vertex="1">
          <mxGeometry x="800" y="280" width="170" height="60" as="geometry" />
        </mxCell>
        <mxCell id="YJmtcbZ3ICE1NTqurdCP-32" value="ZipList" style="rounded=0;whiteSpace=wrap;html=1;fillColor=#ffe6cc;strokeColor=#d79b00;opacity=40;" parent="1" vertex="1">
          <mxGeometry x="800" y="520" width="170" height="60" as="geometry" />
        </mxCell>
        <mxCell id="YJmtcbZ3ICE1NTqurdCP-33" value="HashTable&lt;br&gt;（Dict）" style="rounded=0;whiteSpace=wrap;html=1;fillColor=#ffe6cc;strokeColor=#d79b00;" parent="1" vertex="1">
          <mxGeometry x="800" y="440" width="170" height="60" as="geometry" />
        </mxCell>
        <mxCell id="YJmtcbZ3ICE1NTqurdCP-34" value="IntSet" style="rounded=0;whiteSpace=wrap;html=1;fillColor=#ffe6cc;strokeColor=#d79b00;opacity=40;" parent="1" vertex="1">
          <mxGeometry x="800" y="360" width="170" height="60" as="geometry" />
        </mxCell>
        <mxCell id="YJmtcbZ3ICE1NTqurdCP-35" value="ZSkipList" style="rounded=0;whiteSpace=wrap;html=1;fillColor=#ffe6cc;strokeColor=#d79b00;" parent="1" vertex="1">
          <mxGeometry x="800" y="600" width="170" height="60" as="geometry" />
        </mxCell>
        <mxCell id="YJmtcbZ3ICE1NTqurdCP-36" value="" style="endArrow=classic;html=1;rounded=0;exitX=1;exitY=0.5;exitDx=0;exitDy=0;entryX=0;entryY=0.5;entryDx=0;entryDy=0;" parent="1" source="YJmtcbZ3ICE1NTqurdCP-9" target="YJmtcbZ3ICE1NTqurdCP-30" edge="1">
          <mxGeometry width="50" height="50" relative="1" as="geometry">
            <mxPoint x="1040" y="290" as="sourcePoint" />
            <mxPoint x="1090" y="240" as="targetPoint" />
          </mxGeometry>
        </mxCell>
        <mxCell id="YJmtcbZ3ICE1NTqurdCP-37" value="" style="endArrow=classic;html=1;rounded=0;exitX=1;exitY=0.5;exitDx=0;exitDy=0;entryX=0;entryY=0.5;entryDx=0;entryDy=0;" parent="1" source="YJmtcbZ3ICE1NTqurdCP-17" target="YJmtcbZ3ICE1NTqurdCP-35" edge="1">
          <mxGeometry width="50" height="50" relative="1" as="geometry">
            <mxPoint x="710" y="180" as="sourcePoint" />
            <mxPoint x="810" y="180" as="targetPoint" />
          </mxGeometry>
        </mxCell>
        <mxCell id="YJmtcbZ3ICE1NTqurdCP-38" value="" style="endArrow=classic;html=1;rounded=0;exitX=1;exitY=0.5;exitDx=0;exitDy=0;entryX=0;entryY=0.5;entryDx=0;entryDy=0;" parent="1" source="YJmtcbZ3ICE1NTqurdCP-12" target="YJmtcbZ3ICE1NTqurdCP-32" edge="1">
          <mxGeometry width="50" height="50" relative="1" as="geometry">
            <mxPoint x="720" y="190" as="sourcePoint" />
            <mxPoint x="820" y="190" as="targetPoint" />
          </mxGeometry>
        </mxCell>
        <mxCell id="YJmtcbZ3ICE1NTqurdCP-39" value="" style="endArrow=classic;html=1;rounded=0;exitX=1;exitY=0.5;exitDx=0;exitDy=0;entryX=0;entryY=0.5;entryDx=0;entryDy=0;" parent="1" source="YJmtcbZ3ICE1NTqurdCP-18" target="YJmtcbZ3ICE1NTqurdCP-33" edge="1">
          <mxGeometry width="50" height="50" relative="1" as="geometry">
            <mxPoint x="730" y="200" as="sourcePoint" />
            <mxPoint x="830" y="200" as="targetPoint" />
          </mxGeometry>
        </mxCell>
        <mxCell id="YJmtcbZ3ICE1NTqurdCP-40" value="" style="endArrow=classic;html=1;rounded=0;exitX=1;exitY=0.5;exitDx=0;exitDy=0;entryX=0;entryY=0.5;entryDx=0;entryDy=0;" parent="1" source="YJmtcbZ3ICE1NTqurdCP-11" target="YJmtcbZ3ICE1NTqurdCP-34" edge="1">
          <mxGeometry width="50" height="50" relative="1" as="geometry">
            <mxPoint x="740" y="210" as="sourcePoint" />
            <mxPoint x="840" y="210" as="targetPoint" />
          </mxGeometry>
        </mxCell>
        <mxCell id="YJmtcbZ3ICE1NTqurdCP-41" value="" style="endArrow=classic;html=1;rounded=0;exitX=1;exitY=0.5;exitDx=0;exitDy=0;entryX=0;entryY=0.5;entryDx=0;entryDy=0;" parent="1" source="YJmtcbZ3ICE1NTqurdCP-14" target="YJmtcbZ3ICE1NTqurdCP-31" edge="1">
          <mxGeometry width="50" height="50" relative="1" as="geometry">
            <mxPoint x="750" y="220" as="sourcePoint" />
            <mxPoint x="850" y="220" as="targetPoint" />
          </mxGeometry>
        </mxCell>
        <mxCell id="YJmtcbZ3ICE1NTqurdCP-42" value="" style="endArrow=classic;html=1;rounded=0;exitX=1;exitY=0.5;exitDx=0;exitDy=0;entryX=0;entryY=0.5;entryDx=0;entryDy=0;" parent="1" source="YJmtcbZ3ICE1NTqurdCP-13" target="YJmtcbZ3ICE1NTqurdCP-30" edge="1">
          <mxGeometry width="50" height="50" relative="1" as="geometry">
            <mxPoint x="710" y="180" as="sourcePoint" />
            <mxPoint x="810" y="180" as="targetPoint" />
          </mxGeometry>
        </mxCell>
        <mxCell id="YJmtcbZ3ICE1NTqurdCP-43" value="" style="endArrow=classic;html=1;rounded=0;entryX=0;entryY=0.5;entryDx=0;entryDy=0;" parent="1" target="YJmtcbZ3ICE1NTqurdCP-2" edge="1">
          <mxGeometry width="50" height="50" relative="1" as="geometry">
            <mxPoint x="170" y="390" as="sourcePoint" />
            <mxPoint x="160" y="510" as="targetPoint" />
          </mxGeometry>
        </mxCell>
        <mxCell id="YJmtcbZ3ICE1NTqurdCP-44" value="" style="endArrow=classic;html=1;rounded=0;entryX=0;entryY=0.5;entryDx=0;entryDy=0;exitX=1;exitY=0.5;exitDx=0;exitDy=0;" parent="1" source="YJmtcbZ3ICE1NTqurdCP-1" target="YJmtcbZ3ICE1NTqurdCP-5" edge="1">
          <mxGeometry width="50" height="50" relative="1" as="geometry">
            <mxPoint x="180" y="400" as="sourcePoint" />
            <mxPoint x="260" y="180" as="targetPoint" />
          </mxGeometry>
        </mxCell>
        <mxCell id="YJmtcbZ3ICE1NTqurdCP-45" value="" style="endArrow=classic;html=1;rounded=0;entryX=0;entryY=0.5;entryDx=0;entryDy=0;exitX=1;exitY=0.5;exitDx=0;exitDy=0;" parent="1" source="YJmtcbZ3ICE1NTqurdCP-1" target="YJmtcbZ3ICE1NTqurdCP-6" edge="1">
          <mxGeometry width="50" height="50" relative="1" as="geometry">
            <mxPoint x="190" y="410" as="sourcePoint" />
            <mxPoint x="270" y="190" as="targetPoint" />
          </mxGeometry>
        </mxCell>
        <mxCell id="YJmtcbZ3ICE1NTqurdCP-46" value="" style="endArrow=classic;html=1;rounded=0;entryX=0;entryY=0.5;entryDx=0;entryDy=0;exitX=1;exitY=0.5;exitDx=0;exitDy=0;" parent="1" source="YJmtcbZ3ICE1NTqurdCP-1" target="YJmtcbZ3ICE1NTqurdCP-7" edge="1">
          <mxGeometry width="50" height="50" relative="1" as="geometry">
            <mxPoint x="200" y="420" as="sourcePoint" />
            <mxPoint x="280" y="200" as="targetPoint" />
          </mxGeometry>
        </mxCell>
        <mxCell id="YJmtcbZ3ICE1NTqurdCP-47" value="" style="endArrow=classic;html=1;rounded=0;entryX=0;entryY=0.5;entryDx=0;entryDy=0;exitX=1;exitY=0.5;exitDx=0;exitDy=0;" parent="1" source="YJmtcbZ3ICE1NTqurdCP-1" target="YJmtcbZ3ICE1NTqurdCP-8" edge="1">
          <mxGeometry width="50" height="50" relative="1" as="geometry">
            <mxPoint x="210" y="430" as="sourcePoint" />
            <mxPoint x="290" y="210" as="targetPoint" />
          </mxGeometry>
        </mxCell>
        <mxCell id="YJmtcbZ3ICE1NTqurdCP-48" value="对象机制" style="text;html=1;align=center;verticalAlign=middle;resizable=0;points=[];autosize=1;strokeColor=none;fillColor=none;" parent="1" vertex="1">
          <mxGeometry x="75" y="40" width="70" height="30" as="geometry" />
        </mxCell>
        <mxCell id="YJmtcbZ3ICE1NTqurdCP-49" value="数据类型" style="text;html=1;align=center;verticalAlign=middle;resizable=0;points=[];autosize=1;strokeColor=none;fillColor=none;" parent="1" vertex="1">
          <mxGeometry x="275" y="40" width="70" height="30" as="geometry" />
        </mxCell>
        <mxCell id="YJmtcbZ3ICE1NTqurdCP-50" value="编码类型" style="text;html=1;align=center;verticalAlign=middle;resizable=0;points=[];autosize=1;strokeColor=none;fillColor=none;" parent="1" vertex="1">
          <mxGeometry x="570" y="40" width="70" height="30" as="geometry" />
        </mxCell>
        <mxCell id="YJmtcbZ3ICE1NTqurdCP-51" value="底层数据结构" style="text;html=1;align=center;verticalAlign=middle;resizable=0;points=[];autosize=1;strokeColor=none;fillColor=none;" parent="1" vertex="1">
          <mxGeometry x="835" y="40" width="100" height="30" as="geometry" />
        </mxCell>
      </root>
    </mxGraphModel>
  </diagram>
</mxfile>
